<?xml version="1.0" encoding="iso-8859-1"?>
<!-- Generator: Adobe Illustrator 19.2.0, SVG Export Plug-In . SVG Version: 6.00 Build 0)  -->
<svg version="1.1" id="Layer_1_1_" xmlns="http://www.w3.org/2000/svg" xmlns:xlink="http://www.w3.org/1999/xlink" x="0px" y="0px"
	 viewBox="0 0 149.988541 150" style="enable-background:new 0 0 149.988541 150;" xml:space="preserve">
<g>
	<path style="fill:#448BFF;" d="M61.366653,103.982651c1.865879,1.867874,4.865677,1.867874,6.733559,0l69.003471-69.011475
		c1.865875-1.865883,1.865875-4.865686,0-6.733561l-15.312988-15.318996c-1.865875-1.867874-4.865677-1.867874-6.733559,0
		L46.053658,81.930092c-1.865879,1.865875-1.865879,4.865685,0,6.733559L61.366653,103.982651z M1.244591,149.11969
		c0.851944,0.743958,2.061865,1.047928,3.155793,0.789948l70.629379-17.044876
		c1.623894-0.633957,2.459839-1.72789,3.521759-2.789825l69.003502-69.011475
		c1.867874-1.865875,2.859787-5.139664,2.257843-7.365517l-3.155807-11.89122
		c-0.593948-2.225849-2.577835-2.521835-4.445709-0.655952l-69.003471,69.011475
		c-1.865883,1.867874-2.881813,5.163658-2.287849,7.389511l2.233856,8.391449l-32.029903,7.733505
		c-0.591961-3.905746-4.123734-9.75737-9.569374-15.203011c-5.459644-5.459648-11.31926-9.015411-15.225004-9.599373
		l7.733494-32.037903l8.389448,2.233856c2.227856,0.593964,5.523643-0.421974,7.391518-2.287857l69.003479-69.011467
		c1.865875-1.867889,1.561897-3.851753-0.655952-4.445708L96.308365,0.16945
		c-2.225853-0.593955-5.523643,0.421969-7.389519,2.289843L19.915369,71.468781
		c-1.171925,1.171921-2.211857,2.187851-2.733822,3.469772l-17.09288,70.643372
		c-0.29798,1.265915,0.171989,2.679825,1.155924,3.523773"/>
</g>
<g>
</g>
<g>
</g>
<g>
</g>
<g>
</g>
<g>
</g>
<g>
</g>
<g>
</g>
<g>
</g>
<g>
</g>
<g>
</g>
<g>
</g>
<g>
</g>
<g>
</g>
<g>
</g>
<g>
</g>
</svg>
